<svg xmlns="http://www.w3.org/2000/svg" xmlns:xlink="http://www.w3.org/1999/xlink" width="500" zoomAndPan="magnify" viewBox="0 0 375 374.999991" height="500" preserveAspectRatio="xMidYMid meet" version="1.0"><defs><filter x="0%" y="0%" width="100%" height="100%" id="f916148383"><feColorMatrix values="0 0 0 0 1 0 0 0 0 1 0 0 0 0 1 0 0 0 1 0" color-interpolation-filters="sRGB"/></filter><g/><mask id="e1b8d01bee"><g filter="url(#f916148383)"><rect x="-37.5" width="450" fill="#000000" y="-37.499999" height="449.999989" fill-opacity="0.48"/></g></mask><clipPath id="4e8b8c942c"><path d="M 0.921875 0.160156 L 152.601562 0.160156 L 152.601562 151.839844 L 0.921875 151.839844 Z M 0.921875 0.160156 " clip-rule="nonzero"/></clipPath><clipPath id="cba0636e1d"><path d="M 2 0.160156 L 85 0.160156 L 85 107 L 2 107 Z M 2 0.160156 " clip-rule="nonzero"/></clipPath><clipPath id="9805cbaba4"><path d="M 67 0.160156 L 151 0.160156 L 151 107 L 67 107 Z M 67 0.160156 " clip-rule="nonzero"/></clipPath><clipPath id="c5ffc26d63"><rect x="0" width="153" y="0" height="152"/></clipPath><clipPath id="67aa6aa61a"><rect x="0" width="153" y="0" height="152"/></clipPath></defs><g mask="url(#e1b8d01bee)"><g transform="matrix(1, 0, 0, 1, 109, 110)"><g clip-path="url(#67aa6aa61a)"><g clip-path="url(#4e8b8c942c)"><g><g clip-path="url(#c5ffc26d63)"><g clip-path="url(#cba0636e1d)"><g fill="#ff621f" fill-opacity="1"><g transform="translate(2.308133, 106.988425)"><g><path d="M 6.484375 0 C 7.898438 -1.414062 8.835938 -3.539062 9.296875 -6.375 C 9.753906 -9.207031 9.960938 -12.394531 9.921875 -15.9375 C 9.890625 -19.476562 9.875 -23.019531 9.875 -26.5625 L 9.875 -95.3125 C 9.875 -95.445312 9.945312 -95.617188 10.09375 -95.828125 C 10.238281 -96.046875 10.488281 -96.15625 10.84375 -96.15625 C 11.125 -96.15625 11.367188 -96.066406 11.578125 -95.890625 C 11.796875 -95.710938 11.9375 -95.550781 12 -95.40625 C 12.570312 -94.632812 13.035156 -93.984375 13.390625 -93.453125 C 13.742188 -92.921875 14.164062 -92.300781 14.65625 -91.59375 C 17.351562 -87.695312 20.414062 -83.890625 23.84375 -80.171875 C 27.28125 -76.453125 31.210938 -72.570312 35.640625 -68.53125 C 40.066406 -64.488281 45.097656 -60.078125 50.734375 -55.296875 C 56.367188 -50.515625 62.726562 -45.113281 69.8125 -39.09375 C 74.414062 -35.195312 77.691406 -31.441406 79.640625 -27.828125 C 81.585938 -24.222656 82.5625 -20.789062 82.5625 -17.53125 C 82.5625 -14.0625 81.675781 -11.015625 79.90625 -8.390625 C 78.132812 -5.773438 75.722656 -3.722656 72.671875 -2.234375 C 69.628906 -0.742188 66.195312 0 62.375 0 Z M 17.3125 -2.765625 L 59.390625 -2.765625 C 63.640625 -2.765625 67.234375 -4.019531 70.171875 -6.53125 C 73.117188 -9.050781 74.59375 -12.789062 74.59375 -17.75 C 74.59375 -21.925781 73.421875 -25.976562 71.078125 -29.90625 C 68.742188 -33.84375 65.570312 -37.773438 61.5625 -41.703125 C 57.5625 -45.628906 53.082031 -49.703125 48.125 -53.921875 C 43.164062 -58.140625 38.03125 -62.640625 32.71875 -67.421875 C 27.40625 -72.203125 22.269531 -77.425781 17.3125 -83.09375 Z M 59.078125 -106.25 C 66.015625 -106.25 71.113281 -104.898438 74.375 -102.203125 C 77.632812 -99.515625 79.265625 -95.941406 79.265625 -91.484375 C 79.265625 -87.660156 78.570312 -84.007812 77.1875 -80.53125 C 75.8125 -77.0625 73.9375 -73.820312 71.5625 -70.8125 C 69.1875 -67.800781 66.546875 -65.109375 63.640625 -62.734375 C 60.734375 -60.367188 57.796875 -58.40625 54.828125 -56.84375 L 54.1875 -57.59375 C 59.289062 -61.34375 63.046875 -65.203125 65.453125 -69.171875 C 67.859375 -73.140625 69.414062 -77.015625 70.125 -80.796875 C 70.832031 -84.585938 71.1875 -88.007812 71.1875 -91.0625 C 71.1875 -94.738281 70.035156 -97.742188 67.734375 -100.078125 C 65.429688 -102.421875 62.082031 -103.59375 57.6875 -103.59375 L 35.28125 -103.59375 C 25.007812 -103.59375 17.109375 -102.988281 11.578125 -101.78125 C 6.054688 -100.582031 2.195312 -99.3125 0 -97.96875 L 0 -106.25 Z M 59.078125 -106.25 "/></g></g></g></g><g clip-path="url(#9805cbaba4)"><g fill="#ff621f" fill-opacity="1"><g transform="translate(67.859968, 106.988425)"><g><path d="M 6.484375 0 C 7.898438 -1.414062 8.835938 -3.539062 9.296875 -6.375 C 9.753906 -9.207031 9.960938 -12.394531 9.921875 -15.9375 C 9.890625 -19.476562 9.875 -23.019531 9.875 -26.5625 L 9.875 -95.3125 C 9.875 -95.445312 9.945312 -95.617188 10.09375 -95.828125 C 10.238281 -96.046875 10.488281 -96.15625 10.84375 -96.15625 C 11.125 -96.15625 11.367188 -96.066406 11.578125 -95.890625 C 11.796875 -95.710938 11.9375 -95.550781 12 -95.40625 C 12.570312 -94.632812 13.035156 -93.984375 13.390625 -93.453125 C 13.742188 -92.921875 14.164062 -92.300781 14.65625 -91.59375 C 17.351562 -87.695312 20.414062 -83.890625 23.84375 -80.171875 C 27.28125 -76.453125 31.210938 -72.570312 35.640625 -68.53125 C 40.066406 -64.488281 45.097656 -60.078125 50.734375 -55.296875 C 56.367188 -50.515625 62.726562 -45.113281 69.8125 -39.09375 C 74.414062 -35.195312 77.691406 -31.441406 79.640625 -27.828125 C 81.585938 -24.222656 82.5625 -20.789062 82.5625 -17.53125 C 82.5625 -14.0625 81.675781 -11.015625 79.90625 -8.390625 C 78.132812 -5.773438 75.722656 -3.722656 72.671875 -2.234375 C 69.628906 -0.742188 66.195312 0 62.375 0 Z M 17.3125 -2.765625 L 59.390625 -2.765625 C 63.640625 -2.765625 67.234375 -4.019531 70.171875 -6.53125 C 73.117188 -9.050781 74.59375 -12.789062 74.59375 -17.75 C 74.59375 -21.925781 73.421875 -25.976562 71.078125 -29.90625 C 68.742188 -33.84375 65.570312 -37.773438 61.5625 -41.703125 C 57.5625 -45.628906 53.082031 -49.703125 48.125 -53.921875 C 43.164062 -58.140625 38.03125 -62.640625 32.71875 -67.421875 C 27.40625 -72.203125 22.269531 -77.425781 17.3125 -83.09375 Z M 59.078125 -106.25 C 66.015625 -106.25 71.113281 -104.898438 74.375 -102.203125 C 77.632812 -99.515625 79.265625 -95.941406 79.265625 -91.484375 C 79.265625 -87.660156 78.570312 -84.007812 77.1875 -80.53125 C 75.8125 -77.0625 73.9375 -73.820312 71.5625 -70.8125 C 69.1875 -67.800781 66.546875 -65.109375 63.640625 -62.734375 C 60.734375 -60.367188 57.796875 -58.40625 54.828125 -56.84375 L 54.1875 -57.59375 C 59.289062 -61.34375 63.046875 -65.203125 65.453125 -69.171875 C 67.859375 -73.140625 69.414062 -77.015625 70.125 -80.796875 C 70.832031 -84.585938 71.1875 -88.007812 71.1875 -91.0625 C 71.1875 -94.738281 70.035156 -97.742188 67.734375 -100.078125 C 65.429688 -102.421875 62.082031 -103.59375 57.6875 -103.59375 L 35.28125 -103.59375 C 25.007812 -103.59375 17.109375 -102.988281 11.578125 -101.78125 C 6.054688 -100.582031 2.195312 -99.3125 0 -97.96875 L 0 -106.25 Z M 59.078125 -106.25 "/></g></g></g></g></g></g></g></g></g></g><g fill="#ff8900" fill-opacity="0.349"><g transform="translate(116.311506, 205.017745)"><g><path d="M 1.515625 -34.359375 L 10.84375 -34.359375 C 13.34375 -34.359375 15.160156 -33.742188 16.296875 -32.515625 C 17.429688 -31.296875 18 -29.296875 18 -26.515625 L 18 -25 C 18 -21.71875 16.828125 -19.757812 14.484375 -19.125 C 15.921875 -18.75 16.929688 -17.878906 17.515625 -16.515625 C 18.109375 -15.160156 18.40625 -13.363281 18.40625 -11.125 C 18.40625 -7.46875 17.859375 -4.695312 16.765625 -2.8125 C 15.671875 -0.9375 13.695312 0 10.84375 0 L 1.515625 0 Z M 9.640625 -21.4375 C 10.222656 -21.4375 10.617188 -21.65625 10.828125 -22.09375 C 11.046875 -22.539062 11.15625 -23.160156 11.15625 -23.953125 L 11.15625 -27.40625 C 11.15625 -28.519531 10.664062 -29.078125 9.6875 -29.078125 L 8.234375 -29.078125 L 8.234375 -21.4375 Z M 8.921875 -6.046875 C 10.703125 -6.046875 11.59375 -6.894531 11.59375 -8.59375 L 11.59375 -12.875 C 11.59375 -13.914062 11.441406 -14.703125 11.140625 -15.234375 C 10.835938 -15.773438 10.296875 -16.046875 9.515625 -16.046875 L 8.234375 -16.046875 L 8.234375 -6.078125 Z M 8.921875 -6.046875 "/></g></g></g><g fill="#ff8900" fill-opacity="0.349"><g transform="translate(135.469601, 205.017745)"><g><path d="M 1.359375 -31.234375 L 1.359375 -36.125 L 8.359375 -36.125 L 8.359375 -31.234375 Z M 1.359375 0 L 1.359375 -29.28125 L 8.359375 -29.28125 L 8.359375 0 Z M 1.359375 0 "/></g></g></g><g fill="#ff8900" fill-opacity="0.349"><g transform="translate(145.188633, 205.017745)"><g><path d="M 1.40625 -29.28125 L 8.40625 -29.28125 L 8.40625 -25.5625 C 8.695312 -26.757812 9.203125 -27.726562 9.921875 -28.46875 C 10.640625 -29.21875 11.597656 -29.59375 12.796875 -29.59375 C 14.773438 -29.59375 16.234375 -28.984375 17.171875 -27.765625 C 18.117188 -26.554688 18.59375 -24.832031 18.59375 -22.59375 L 18.59375 0 L 11.71875 0 L 11.71875 -21.875 C 11.71875 -22.519531 11.585938 -23.066406 11.328125 -23.515625 C 11.078125 -23.972656 10.6875 -24.203125 10.15625 -24.203125 C 9.4375 -24.203125 8.960938 -23.875 8.734375 -23.21875 C 8.515625 -22.5625 8.40625 -21.6875 8.40625 -20.59375 L 8.40625 0 L 1.40625 0 Z M 1.40625 -29.28125 "/></g></g></g><g fill="#ff8900" fill-opacity="0.349"><g transform="translate(165.146647, 205.017745)"><g><path d="M 9.28125 4.28125 C 7.195312 4.28125 5.5625 4.113281 4.375 3.78125 C 3.1875 3.445312 2.019531 2.8125 0.875 1.875 L 3.28125 -2.15625 C 4.988281 -1.144531 6.679688 -0.640625 8.359375 -0.640625 C 9.453125 -0.640625 10.28125 -0.984375 10.84375 -1.671875 C 11.40625 -2.367188 11.6875 -3.316406 11.6875 -4.515625 L 11.6875 -6.125 C 11.125 -4.125 9.640625 -3.125 7.234375 -3.125 C 5.234375 -3.125 3.757812 -3.800781 2.8125 -5.15625 C 1.875 -6.519531 1.40625 -8.332031 1.40625 -10.59375 L 1.40625 -21.59375 C 1.40625 -24.1875 1.835938 -26.164062 2.703125 -27.53125 C 3.566406 -28.90625 5.078125 -29.59375 7.234375 -29.59375 C 8.492188 -29.59375 9.488281 -29.28125 10.21875 -28.65625 C 10.945312 -28.03125 11.4375 -27.144531 11.6875 -26 L 11.6875 -29.28125 L 18.84375 -29.28125 L 18.84375 -4.953125 C 18.84375 -1.679688 18.082031 0.671875 16.5625 2.109375 C 15.039062 3.554688 12.613281 4.28125 9.28125 4.28125 Z M 10.046875 -8.40625 C 11.140625 -8.40625 11.6875 -9.390625 11.6875 -11.359375 L 11.6875 -21.796875 C 11.6875 -22.390625 11.523438 -22.953125 11.203125 -23.484375 C 10.878906 -24.015625 10.476562 -24.28125 10 -24.28125 C 9.382812 -24.28125 8.96875 -24.054688 8.75 -23.609375 C 8.539062 -23.171875 8.4375 -22.566406 8.4375 -21.796875 L 8.4375 -11.359375 C 8.4375 -10.484375 8.539062 -9.769531 8.75 -9.21875 C 8.96875 -8.675781 9.398438 -8.40625 10.046875 -8.40625 Z M 10.046875 -8.40625 "/></g></g></g><g fill="#ff8900" fill-opacity="0.349"><g transform="translate(185.304647, 205.017745)"><g><path d="M 9.59375 0.3125 C 6.582031 0.3125 4.421875 -0.507812 3.109375 -2.15625 C 1.804688 -3.8125 1.15625 -6.28125 1.15625 -9.5625 L 1.15625 -21.3125 C 1.15625 -24.007812 1.925781 -26.0625 3.46875 -27.46875 C 5.019531 -28.882812 7.179688 -29.59375 9.953125 -29.59375 C 15.585938 -29.59375 18.40625 -26.832031 18.40625 -21.3125 L 18.40625 -19.203125 C 18.40625 -17.066406 18.375 -15.332031 18.3125 -14 L 8.15625 -14 L 8.15625 -8.3125 C 8.15625 -7.300781 8.257812 -6.507812 8.46875 -5.9375 C 8.6875 -5.363281 9.144531 -5.078125 9.84375 -5.078125 C 10.375 -5.078125 10.75 -5.238281 10.96875 -5.5625 C 11.195312 -5.882812 11.332031 -6.25 11.375 -6.65625 C 11.414062 -7.070312 11.4375 -7.679688 11.4375 -8.484375 L 11.4375 -11.3125 L 18.40625 -11.3125 L 18.40625 -9.640625 C 18.40625 -6.222656 17.742188 -3.707031 16.421875 -2.09375 C 15.097656 -0.488281 12.820312 0.3125 9.59375 0.3125 Z M 11.4375 -17.484375 L 11.4375 -21.234375 C 11.4375 -23.347656 10.914062 -24.40625 9.875 -24.40625 C 8.707031 -24.40625 8.125 -23.347656 8.125 -21.234375 L 8.125 -17.484375 Z M 11.4375 -17.484375 "/></g></g></g><g fill="#ff8900" fill-opacity="0.349"><g transform="translate(204.822704, 205.017745)"><g><path d="M 1.515625 -34.359375 L 10.84375 -34.359375 C 13.34375 -34.359375 15.160156 -33.742188 16.296875 -32.515625 C 17.429688 -31.296875 18 -29.296875 18 -26.515625 L 18 -25 C 18 -21.71875 16.828125 -19.757812 14.484375 -19.125 C 15.921875 -18.75 16.929688 -17.878906 17.515625 -16.515625 C 18.109375 -15.160156 18.40625 -13.363281 18.40625 -11.125 C 18.40625 -7.46875 17.859375 -4.695312 16.765625 -2.8125 C 15.671875 -0.9375 13.695312 0 10.84375 0 L 1.515625 0 Z M 9.640625 -21.4375 C 10.222656 -21.4375 10.617188 -21.65625 10.828125 -22.09375 C 11.046875 -22.539062 11.15625 -23.160156 11.15625 -23.953125 L 11.15625 -27.40625 C 11.15625 -28.519531 10.664062 -29.078125 9.6875 -29.078125 L 8.234375 -29.078125 L 8.234375 -21.4375 Z M 8.921875 -6.046875 C 10.703125 -6.046875 11.59375 -6.894531 11.59375 -8.59375 L 11.59375 -12.875 C 11.59375 -13.914062 11.441406 -14.703125 11.140625 -15.234375 C 10.835938 -15.773438 10.296875 -16.046875 9.515625 -16.046875 L 8.234375 -16.046875 L 8.234375 -6.078125 Z M 8.921875 -6.046875 "/></g></g></g><g fill="#ff8900" fill-opacity="0.349"><g transform="translate(223.980799, 205.017745)"><g><path d="M 9.921875 0.3125 C 4.078125 0.3125 1.15625 -2.710938 1.15625 -8.765625 L 1.15625 -20.515625 C 1.15625 -23.296875 1.9375 -25.503906 3.5 -27.140625 C 5.0625 -28.773438 7.203125 -29.59375 9.921875 -29.59375 C 12.640625 -29.59375 14.78125 -28.773438 16.34375 -27.140625 C 17.90625 -25.503906 18.6875 -23.296875 18.6875 -20.515625 L 18.6875 -8.765625 C 18.6875 -2.710938 15.765625 0.3125 9.921875 0.3125 Z M 9.921875 -5.078125 C 10.484375 -5.078125 10.894531 -5.273438 11.15625 -5.671875 C 11.425781 -6.078125 11.5625 -6.625 11.5625 -7.3125 L 11.5625 -21.640625 C 11.5625 -23.347656 11.015625 -24.203125 9.921875 -24.203125 C 8.828125 -24.203125 8.28125 -23.347656 8.28125 -21.640625 L 8.28125 -7.3125 C 8.28125 -6.625 8.410156 -6.078125 8.671875 -5.671875 C 8.941406 -5.273438 9.359375 -5.078125 9.921875 -5.078125 Z M 9.921875 -5.078125 "/></g></g></g><g fill="#ff8900" fill-opacity="0.349"><g transform="translate(243.858818, 205.017745)"><g><path d="M 18.203125 0 L 11.203125 0 L 8.234375 -8.234375 L 5.4375 0 L 0.15625 0 L 5.515625 -15.71875 L 0.640625 -29.3125 L 7.765625 -29.3125 L 10.28125 -22.203125 L 12.765625 -29.3125 L 17.953125 -29.3125 L 12.921875 -14.84375 Z M 18.203125 0 "/></g></g></g><g fill="#ff8900" fill-opacity="1"><g transform="translate(114.543739, 203.249987)"><g><path d="M 1.515625 -34.359375 L 10.84375 -34.359375 C 13.34375 -34.359375 15.160156 -33.742188 16.296875 -32.515625 C 17.429688 -31.296875 18 -29.296875 18 -26.515625 L 18 -25 C 18 -21.71875 16.828125 -19.757812 14.484375 -19.125 C 15.921875 -18.75 16.929688 -17.878906 17.515625 -16.515625 C 18.109375 -15.160156 18.40625 -13.363281 18.40625 -11.125 C 18.40625 -7.46875 17.859375 -4.695312 16.765625 -2.8125 C 15.671875 -0.9375 13.695312 0 10.84375 0 L 1.515625 0 Z M 9.640625 -21.4375 C 10.222656 -21.4375 10.617188 -21.65625 10.828125 -22.09375 C 11.046875 -22.539062 11.15625 -23.160156 11.15625 -23.953125 L 11.15625 -27.40625 C 11.15625 -28.519531 10.664062 -29.078125 9.6875 -29.078125 L 8.234375 -29.078125 L 8.234375 -21.4375 Z M 8.921875 -6.046875 C 10.703125 -6.046875 11.59375 -6.894531 11.59375 -8.59375 L 11.59375 -12.875 C 11.59375 -13.914062 11.441406 -14.703125 11.140625 -15.234375 C 10.835938 -15.773438 10.296875 -16.046875 9.515625 -16.046875 L 8.234375 -16.046875 L 8.234375 -6.078125 Z M 8.921875 -6.046875 "/></g></g></g><g fill="#ff8900" fill-opacity="1"><g transform="translate(133.701833, 203.249987)"><g><path d="M 1.359375 -31.234375 L 1.359375 -36.125 L 8.359375 -36.125 L 8.359375 -31.234375 Z M 1.359375 0 L 1.359375 -29.28125 L 8.359375 -29.28125 L 8.359375 0 Z M 1.359375 0 "/></g></g></g><g fill="#ff8900" fill-opacity="1"><g transform="translate(143.420865, 203.249987)"><g><path d="M 1.40625 -29.28125 L 8.40625 -29.28125 L 8.40625 -25.5625 C 8.695312 -26.757812 9.203125 -27.726562 9.921875 -28.46875 C 10.640625 -29.21875 11.597656 -29.59375 12.796875 -29.59375 C 14.773438 -29.59375 16.234375 -28.984375 17.171875 -27.765625 C 18.117188 -26.554688 18.59375 -24.832031 18.59375 -22.59375 L 18.59375 0 L 11.71875 0 L 11.71875 -21.875 C 11.71875 -22.519531 11.585938 -23.066406 11.328125 -23.515625 C 11.078125 -23.972656 10.6875 -24.203125 10.15625 -24.203125 C 9.4375 -24.203125 8.960938 -23.875 8.734375 -23.21875 C 8.515625 -22.5625 8.40625 -21.6875 8.40625 -20.59375 L 8.40625 0 L 1.40625 0 Z M 1.40625 -29.28125 "/></g></g></g><g fill="#ff8900" fill-opacity="1"><g transform="translate(163.378879, 203.249987)"><g><path d="M 9.28125 4.28125 C 7.195312 4.28125 5.5625 4.113281 4.375 3.78125 C 3.1875 3.445312 2.019531 2.8125 0.875 1.875 L 3.28125 -2.15625 C 4.988281 -1.144531 6.679688 -0.640625 8.359375 -0.640625 C 9.453125 -0.640625 10.28125 -0.984375 10.84375 -1.671875 C 11.40625 -2.367188 11.6875 -3.316406 11.6875 -4.515625 L 11.6875 -6.125 C 11.125 -4.125 9.640625 -3.125 7.234375 -3.125 C 5.234375 -3.125 3.757812 -3.800781 2.8125 -5.15625 C 1.875 -6.519531 1.40625 -8.332031 1.40625 -10.59375 L 1.40625 -21.59375 C 1.40625 -24.1875 1.835938 -26.164062 2.703125 -27.53125 C 3.566406 -28.90625 5.078125 -29.59375 7.234375 -29.59375 C 8.492188 -29.59375 9.488281 -29.28125 10.21875 -28.65625 C 10.945312 -28.03125 11.4375 -27.144531 11.6875 -26 L 11.6875 -29.28125 L 18.84375 -29.28125 L 18.84375 -4.953125 C 18.84375 -1.679688 18.082031 0.671875 16.5625 2.109375 C 15.039062 3.554688 12.613281 4.28125 9.28125 4.28125 Z M 10.046875 -8.40625 C 11.140625 -8.40625 11.6875 -9.390625 11.6875 -11.359375 L 11.6875 -21.796875 C 11.6875 -22.390625 11.523438 -22.953125 11.203125 -23.484375 C 10.878906 -24.015625 10.476562 -24.28125 10 -24.28125 C 9.382812 -24.28125 8.96875 -24.054688 8.75 -23.609375 C 8.539062 -23.171875 8.4375 -22.566406 8.4375 -21.796875 L 8.4375 -11.359375 C 8.4375 -10.484375 8.539062 -9.769531 8.75 -9.21875 C 8.96875 -8.675781 9.398438 -8.40625 10.046875 -8.40625 Z M 10.046875 -8.40625 "/></g></g></g><g fill="#ff8900" fill-opacity="1"><g transform="translate(183.536879, 203.249987)"><g><path d="M 9.59375 0.3125 C 6.582031 0.3125 4.421875 -0.507812 3.109375 -2.15625 C 1.804688 -3.8125 1.15625 -6.28125 1.15625 -9.5625 L 1.15625 -21.3125 C 1.15625 -24.007812 1.925781 -26.0625 3.46875 -27.46875 C 5.019531 -28.882812 7.179688 -29.59375 9.953125 -29.59375 C 15.585938 -29.59375 18.40625 -26.832031 18.40625 -21.3125 L 18.40625 -19.203125 C 18.40625 -17.066406 18.375 -15.332031 18.3125 -14 L 8.15625 -14 L 8.15625 -8.3125 C 8.15625 -7.300781 8.257812 -6.507812 8.46875 -5.9375 C 8.6875 -5.363281 9.144531 -5.078125 9.84375 -5.078125 C 10.375 -5.078125 10.75 -5.238281 10.96875 -5.5625 C 11.195312 -5.882812 11.332031 -6.25 11.375 -6.65625 C 11.414062 -7.070312 11.4375 -7.679688 11.4375 -8.484375 L 11.4375 -11.3125 L 18.40625 -11.3125 L 18.40625 -9.640625 C 18.40625 -6.222656 17.742188 -3.707031 16.421875 -2.09375 C 15.097656 -0.488281 12.820312 0.3125 9.59375 0.3125 Z M 11.4375 -17.484375 L 11.4375 -21.234375 C 11.4375 -23.347656 10.914062 -24.40625 9.875 -24.40625 C 8.707031 -24.40625 8.125 -23.347656 8.125 -21.234375 L 8.125 -17.484375 Z M 11.4375 -17.484375 "/></g></g></g><g fill="#ff8900" fill-opacity="1"><g transform="translate(203.054936, 203.249987)"><g><path d="M 1.515625 -34.359375 L 10.84375 -34.359375 C 13.34375 -34.359375 15.160156 -33.742188 16.296875 -32.515625 C 17.429688 -31.296875 18 -29.296875 18 -26.515625 L 18 -25 C 18 -21.71875 16.828125 -19.757812 14.484375 -19.125 C 15.921875 -18.75 16.929688 -17.878906 17.515625 -16.515625 C 18.109375 -15.160156 18.40625 -13.363281 18.40625 -11.125 C 18.40625 -7.46875 17.859375 -4.695312 16.765625 -2.8125 C 15.671875 -0.9375 13.695312 0 10.84375 0 L 1.515625 0 Z M 9.640625 -21.4375 C 10.222656 -21.4375 10.617188 -21.65625 10.828125 -22.09375 C 11.046875 -22.539062 11.15625 -23.160156 11.15625 -23.953125 L 11.15625 -27.40625 C 11.15625 -28.519531 10.664062 -29.078125 9.6875 -29.078125 L 8.234375 -29.078125 L 8.234375 -21.4375 Z M 8.921875 -6.046875 C 10.703125 -6.046875 11.59375 -6.894531 11.59375 -8.59375 L 11.59375 -12.875 C 11.59375 -13.914062 11.441406 -14.703125 11.140625 -15.234375 C 10.835938 -15.773438 10.296875 -16.046875 9.515625 -16.046875 L 8.234375 -16.046875 L 8.234375 -6.078125 Z M 8.921875 -6.046875 "/></g></g></g><g fill="#ff8900" fill-opacity="1"><g transform="translate(222.213031, 203.249987)"><g><path d="M 9.921875 0.3125 C 4.078125 0.3125 1.15625 -2.710938 1.15625 -8.765625 L 1.15625 -20.515625 C 1.15625 -23.296875 1.9375 -25.503906 3.5 -27.140625 C 5.0625 -28.773438 7.203125 -29.59375 9.921875 -29.59375 C 12.640625 -29.59375 14.78125 -28.773438 16.34375 -27.140625 C 17.90625 -25.503906 18.6875 -23.296875 18.6875 -20.515625 L 18.6875 -8.765625 C 18.6875 -2.710938 15.765625 0.3125 9.921875 0.3125 Z M 9.921875 -5.078125 C 10.484375 -5.078125 10.894531 -5.273438 11.15625 -5.671875 C 11.425781 -6.078125 11.5625 -6.625 11.5625 -7.3125 L 11.5625 -21.640625 C 11.5625 -23.347656 11.015625 -24.203125 9.921875 -24.203125 C 8.828125 -24.203125 8.28125 -23.347656 8.28125 -21.640625 L 8.28125 -7.3125 C 8.28125 -6.625 8.410156 -6.078125 8.671875 -5.671875 C 8.941406 -5.273438 9.359375 -5.078125 9.921875 -5.078125 Z M 9.921875 -5.078125 "/></g></g></g><g fill="#ff8900" fill-opacity="1"><g transform="translate(242.09105, 203.249987)"><g><path d="M 18.203125 0 L 11.203125 0 L 8.234375 -8.234375 L 5.4375 0 L 0.15625 0 L 5.515625 -15.71875 L 0.640625 -29.3125 L 7.765625 -29.3125 L 10.28125 -22.203125 L 12.765625 -29.3125 L 17.953125 -29.3125 L 12.921875 -14.84375 Z M 18.203125 0 "/></g></g></g></svg>